<mxfile host="app.diagrams.net" modified="2021-05-20T13:22:41.853Z" agent="5.0 (Macintosh; Intel Mac OS X 10_15_7) AppleWebKit/537.36 (KHTML, like Gecko) Chrome/90.0.4430.212 Safari/537.36" etag="jalVXWOOaeHVaXYuC4vv" version="14.6.13" type="github">
  <diagram id="9jVdMlBaQXYmBSLVEoxJ" name="Route">
    <mxGraphModel dx="346" dy="654" grid="1" gridSize="10" guides="1" tooltips="1" connect="1" arrows="1" fold="1" page="1" pageScale="1" pageWidth="1600" pageHeight="1200" math="0" shadow="0">
      <root>
        <mxCell id="0" />
        <mxCell id="1" parent="0" />
        <mxCell id="H1_ommvO5_JhGvtZeJkz-108" value="" style="rounded=1;whiteSpace=wrap;html=1;fontSize=16;fillColor=#ffe6cc;strokeColor=#d79b00;" parent="1" vertex="1">
          <mxGeometry x="570" y="379" width="240" height="90" as="geometry" />
        </mxCell>
        <mxCell id="H1_ommvO5_JhGvtZeJkz-100" value="" style="rounded=1;whiteSpace=wrap;html=1;fontSize=16;fillColor=#f8cecc;strokeColor=#b85450;" parent="1" vertex="1">
          <mxGeometry x="810" y="705" width="210" height="170" as="geometry" />
        </mxCell>
        <mxCell id="H1_ommvO5_JhGvtZeJkz-99" value="" style="rounded=1;whiteSpace=wrap;html=1;fontSize=16;fillColor=#d5e8d4;strokeColor=#82b366;" parent="1" vertex="1">
          <mxGeometry x="588" y="705" width="210" height="170" as="geometry" />
        </mxCell>
        <mxCell id="H1_ommvO5_JhGvtZeJkz-9" value="" style="strokeWidth=1;shadow=0;dashed=0;align=center;html=1;shape=mxgraph.mockup.containers.browserWindow;rSize=0;strokeColor=#666666;strokeColor2=#008cff;strokeColor3=#c4c4c4;mainText=,;recursiveResize=0;rounded=1;fontSize=12;" parent="1" vertex="1">
          <mxGeometry x="570" y="475" width="450" height="220" as="geometry" />
        </mxCell>
        <mxCell id="H1_ommvO5_JhGvtZeJkz-10" value="Page 1" style="strokeWidth=1;shadow=0;dashed=0;align=center;html=1;shape=mxgraph.mockup.containers.anchor;fontSize=17;fontColor=#666666;align=left;" parent="H1_ommvO5_JhGvtZeJkz-9" vertex="1">
          <mxGeometry x="60" y="12" width="110" height="26" as="geometry" />
        </mxCell>
        <mxCell id="H1_ommvO5_JhGvtZeJkz-11" value="https://www.example.com&lt;font color=&quot;#82b366&quot;&gt;/video&lt;/font&gt;" style="strokeWidth=1;shadow=0;dashed=0;align=center;html=1;shape=mxgraph.mockup.containers.anchor;rSize=0;fontSize=17;fontColor=#666666;align=left;" parent="H1_ommvO5_JhGvtZeJkz-9" vertex="1">
          <mxGeometry x="130" y="60" width="250" height="26" as="geometry" />
        </mxCell>
        <mxCell id="H1_ommvO5_JhGvtZeJkz-23" value="" style="pointerEvents=1;shadow=0;dashed=0;html=1;strokeColor=none;fillColor=#505050;labelPosition=center;verticalLabelPosition=bottom;verticalAlign=top;outlineConnect=0;align=center;shape=mxgraph.office.concepts.video_play;rounded=1;fontSize=17;aspect=fixed;" parent="H1_ommvO5_JhGvtZeJkz-9" vertex="1">
          <mxGeometry x="10" y="120" width="80" height="64" as="geometry" />
        </mxCell>
        <mxCell id="H1_ommvO5_JhGvtZeJkz-6" value="Route" style="text;html=1;align=center;verticalAlign=middle;resizable=0;points=[];autosize=1;fontStyle=1;fontSize=40;" parent="1" vertex="1">
          <mxGeometry x="735" y="290" width="130" height="50" as="geometry" />
        </mxCell>
        <mxCell id="H1_ommvO5_JhGvtZeJkz-37" style="edgeStyle=orthogonalEdgeStyle;rounded=0;orthogonalLoop=1;jettySize=auto;html=1;fontSize=16;" parent="1" source="H1_ommvO5_JhGvtZeJkz-12" target="H1_ommvO5_JhGvtZeJkz-11" edge="1">
          <mxGeometry relative="1" as="geometry" />
        </mxCell>
        <mxCell id="H1_ommvO5_JhGvtZeJkz-39" value="Listen to URL" style="edgeLabel;html=1;align=center;verticalAlign=middle;resizable=0;points=[];fontSize=16;" parent="H1_ommvO5_JhGvtZeJkz-37" vertex="1" connectable="0">
          <mxGeometry x="-0.7926" y="2" relative="1" as="geometry">
            <mxPoint y="-7" as="offset" />
          </mxGeometry>
        </mxCell>
        <mxCell id="H1_ommvO5_JhGvtZeJkz-50" style="edgeStyle=orthogonalEdgeStyle;rounded=0;orthogonalLoop=1;jettySize=auto;html=1;entryX=0.5;entryY=0;entryDx=0;entryDy=0;fontSize=16;" parent="1" source="H1_ommvO5_JhGvtZeJkz-12" target="H1_ommvO5_JhGvtZeJkz-48" edge="1">
          <mxGeometry relative="1" as="geometry" />
        </mxCell>
        <mxCell id="H1_ommvO5_JhGvtZeJkz-52" value="URL === path&lt;br&gt;Return Children Component" style="edgeLabel;html=1;align=center;verticalAlign=middle;resizable=0;points=[];fontSize=16;labelBackgroundColor=#D5E8D4;" parent="H1_ommvO5_JhGvtZeJkz-50" vertex="1" connectable="0">
          <mxGeometry x="-0.0739" y="1" relative="1" as="geometry">
            <mxPoint y="-1" as="offset" />
          </mxGeometry>
        </mxCell>
        <mxCell id="H1_ommvO5_JhGvtZeJkz-12" value="&amp;lt;Route path=&quot;/video&quot;&amp;gt;" style="rounded=1;whiteSpace=wrap;html=1;fontSize=16;fillColor=#dae8fc;strokeColor=#6c8ebf;" parent="1" vertex="1">
          <mxGeometry x="603" y="715" width="180" height="40" as="geometry" />
        </mxCell>
        <mxCell id="H1_ommvO5_JhGvtZeJkz-36" style="edgeStyle=orthogonalEdgeStyle;rounded=0;orthogonalLoop=1;jettySize=auto;html=1;fontSize=16;" parent="1" source="H1_ommvO5_JhGvtZeJkz-27" target="H1_ommvO5_JhGvtZeJkz-11" edge="1">
          <mxGeometry relative="1" as="geometry" />
        </mxCell>
        <mxCell id="H1_ommvO5_JhGvtZeJkz-38" value="Listen to URL" style="edgeLabel;html=1;align=center;verticalAlign=middle;resizable=0;points=[];fontSize=16;" parent="H1_ommvO5_JhGvtZeJkz-36" vertex="1" connectable="0">
          <mxGeometry x="-0.7512" y="-2" relative="1" as="geometry">
            <mxPoint y="-7" as="offset" />
          </mxGeometry>
        </mxCell>
        <mxCell id="H1_ommvO5_JhGvtZeJkz-51" style="edgeStyle=orthogonalEdgeStyle;rounded=0;orthogonalLoop=1;jettySize=auto;html=1;fontSize=16;" parent="1" source="H1_ommvO5_JhGvtZeJkz-27" target="H1_ommvO5_JhGvtZeJkz-103" edge="1">
          <mxGeometry relative="1" as="geometry">
            <mxPoint x="915" y="825" as="targetPoint" />
          </mxGeometry>
        </mxCell>
        <mxCell id="H1_ommvO5_JhGvtZeJkz-53" value="URL !== path&lt;br&gt;Return null" style="edgeLabel;html=1;align=center;verticalAlign=middle;resizable=0;points=[];fontSize=16;labelBackgroundColor=#F8CECC;" parent="H1_ommvO5_JhGvtZeJkz-51" vertex="1" connectable="0">
          <mxGeometry x="-0.1897" y="-2" relative="1" as="geometry">
            <mxPoint x="2" y="4.76" as="offset" />
          </mxGeometry>
        </mxCell>
        <mxCell id="H1_ommvO5_JhGvtZeJkz-27" value="&amp;lt;Route path=&quot;/music&quot;&amp;gt;" style="rounded=1;whiteSpace=wrap;html=1;fontSize=16;fillColor=#dae8fc;strokeColor=#6c8ebf;" parent="1" vertex="1">
          <mxGeometry x="825" y="715" width="180" height="40" as="geometry" />
        </mxCell>
        <mxCell id="H1_ommvO5_JhGvtZeJkz-44" style="edgeStyle=orthogonalEdgeStyle;rounded=0;orthogonalLoop=1;jettySize=auto;html=1;fontSize=16;exitX=1;exitY=0.5;exitDx=0;exitDy=0;" parent="1" source="H1_ommvO5_JhGvtZeJkz-42" target="H1_ommvO5_JhGvtZeJkz-11" edge="1">
          <mxGeometry relative="1" as="geometry">
            <Array as="points">
              <mxPoint x="825" y="410" />
            </Array>
          </mxGeometry>
        </mxCell>
        <mxCell id="H1_ommvO5_JhGvtZeJkz-96" value="Change URL" style="edgeLabel;html=1;align=center;verticalAlign=middle;resizable=0;points=[];fontSize=16;" parent="H1_ommvO5_JhGvtZeJkz-44" vertex="1" connectable="0">
          <mxGeometry x="-0.2326" y="-2" relative="1" as="geometry">
            <mxPoint x="2" y="49.65" as="offset" />
          </mxGeometry>
        </mxCell>
        <mxCell id="H1_ommvO5_JhGvtZeJkz-42" value="&amp;lt;Link&amp;gt;" style="whiteSpace=wrap;html=1;rounded=1;fontSize=16;fillColor=#dae8fc;strokeColor=#6c8ebf;" parent="1" vertex="1">
          <mxGeometry x="726" y="395" width="80" height="30" as="geometry" />
        </mxCell>
        <mxCell id="H1_ommvO5_JhGvtZeJkz-45" style="edgeStyle=orthogonalEdgeStyle;rounded=0;orthogonalLoop=1;jettySize=auto;html=1;entryX=0;entryY=0.5;entryDx=0;entryDy=0;fontSize=16;" parent="1" source="H1_ommvO5_JhGvtZeJkz-43" target="H1_ommvO5_JhGvtZeJkz-42" edge="1">
          <mxGeometry relative="1" as="geometry" />
        </mxCell>
        <mxCell id="H1_ommvO5_JhGvtZeJkz-49" value="Modify to&lt;br&gt;No Refresh" style="edgeLabel;html=1;align=center;verticalAlign=middle;resizable=0;points=[];fontSize=16;labelBackgroundColor=#FFE6CC;" parent="H1_ommvO5_JhGvtZeJkz-45" vertex="1" connectable="0">
          <mxGeometry x="-0.1412" y="-1" relative="1" as="geometry">
            <mxPoint x="1.7200000000000024" y="-1" as="offset" />
          </mxGeometry>
        </mxCell>
        <mxCell id="H1_ommvO5_JhGvtZeJkz-43" value="&amp;lt;a&amp;gt;" style="whiteSpace=wrap;html=1;rounded=0;fontSize=16;fillColor=#fff2cc;strokeColor=#d6b656;" parent="1" vertex="1">
          <mxGeometry x="576" y="395" width="40" height="30" as="geometry" />
        </mxCell>
        <mxCell id="H1_ommvO5_JhGvtZeJkz-48" value="&amp;lt;Video&amp;gt;" style="whiteSpace=wrap;html=1;rounded=1;fontSize=16;fillColor=#dae8fc;strokeColor=#6c8ebf;" parent="1" vertex="1">
          <mxGeometry x="633" y="825" width="120" height="40" as="geometry" />
        </mxCell>
        <mxCell id="H1_ommvO5_JhGvtZeJkz-101" value="Show &amp;lt;Video&amp;gt;" style="text;html=1;align=center;verticalAlign=middle;resizable=0;points=[];autosize=1;fontSize=16;fontColor=#82B366;" parent="1" vertex="1">
          <mxGeometry x="630" y="885" width="120" height="20" as="geometry" />
        </mxCell>
        <mxCell id="H1_ommvO5_JhGvtZeJkz-102" value="Hide &amp;lt;Music&amp;gt;" style="text;html=1;align=center;verticalAlign=middle;resizable=0;points=[];autosize=1;fontSize=16;fontColor=#B85450;" parent="1" vertex="1">
          <mxGeometry x="860" y="885" width="110" height="20" as="geometry" />
        </mxCell>
        <mxCell id="H1_ommvO5_JhGvtZeJkz-103" value="null" style="text;html=1;align=center;verticalAlign=middle;resizable=0;points=[];autosize=1;fontSize=16;" parent="1" vertex="1">
          <mxGeometry x="895" y="835" width="40" height="20" as="geometry" />
        </mxCell>
        <mxCell id="H1_ommvO5_JhGvtZeJkz-105" value="" style="html=1;verticalLabelPosition=bottom;align=center;labelBackgroundColor=#ffffff;verticalAlign=top;strokeWidth=2;strokeColor=#0080F0;shadow=0;dashed=0;shape=mxgraph.ios7.icons.reload;rounded=0;fillColor=#ffffff;fontSize=16;fontColor=#B85450;aspect=fixed;" parent="1" vertex="1">
          <mxGeometry x="643" y="439" width="20" height="22.5" as="geometry" />
        </mxCell>
        <mxCell id="H1_ommvO5_JhGvtZeJkz-107" value="" style="shape=mxgraph.signs.safety.no;html=1;pointerEvents=1;strokeColor=none;verticalLabelPosition=bottom;verticalAlign=top;align=center;rounded=0;labelBackgroundColor=#F8CECC;fontSize=16;fontColor=#B85450;fillColor=#B85450;" parent="1" vertex="1">
          <mxGeometry x="670" y="439.5" width="21.5" height="21.5" as="geometry" />
        </mxCell>
      </root>
    </mxGraphModel>
  </diagram>
</mxfile>
